<svg id="Layer_1" xmlns="http://www.w3.org/2000/svg" viewBox="0 0 201.38 190" width="201.38" height="190">
  <g id="logo">
    <path d="M46.13,95.44s2.65,37.68,51.11,37.08c60.07-.75,72.09-32.58,72.09-32.58l-9.77-10.62s-7.73,16.4-22.21,15.89c-13.44-.47-23.65-20.87-26.42-30.04-3.26-10.77-1.86-35.47,1.4-40.85,3.47-5.74,18.3-10.69,33.27-10.69,13.92,0,28.07,3.03,33.26,10.49,4.46,6.4,6.46,27.08,3.23,40.11-2.09,8.42-8.06,20.45-8.06,20.45l13.53,10.12-4.39,8-11.88-11.42s-17.1,31.67-74.87,32.3c-46.38,.51-50.28-33.81-50.28-38.23Zm125.54-1.62s7.19-11.7,8.8-24.78c1.39-11.25,1.62-22.48-5.38-30.29-7.05-7.87-15.17-9.83-29.49-9.67-14.65,.17-23.94,2.13-28.77,9.2-5.66,8.28-6.37,21.43-2.79,35.71,3.16,12.59,12.49,27.73,23.78,27.58,16.44-.23,22.4-17.83,22.4-17.83l11.45,10.07Z" fill="#009444" stroke="#006838" stroke-miterlimit="10" stroke-width="8.36" />
    <g>
      <path d="M5.64,59.13c-.02-5.67,.7-10.96,2.88-15.96,4.79-11.01,16.79-15.53,27.55-10.2,2.61,1.29,5.01,3.1,7.29,4.94,3.51,2.82,6.03,2.89,9.36-.13,3.82-3.47,8.03-6.26,13.22-7.14,9.12-1.54,17.45,2.84,21.51,11.26,2.81,5.83,3.7,12.07,3.36,18.45-.59,10.94-3.31,21.35-8.66,30.96-1.29,2.32-2.98,4.45-4.7,6.48-2.03,2.4-4.74,3.75-7.86,4.24-4.69,.75-9.39,.98-14.08,.15-1.3-.23-2.6-.77-3.77-1.39-1.87-1-3.81-1.38-5.55-.2-2.51,1.7-5.31,2.15-8.15,2.21-3.34,.07-6.7-.14-10.02-.46-3.77-.37-6.64-2.53-9.07-5.29-4.56-5.17-7.35-11.32-9.53-17.77-2.24-6.62-3.63-13.41-3.78-20.16Zm48.07,5.08c-2.06,2.39-.66,6.89,2.69,7.63,1.83-3.16,.69-6.4-2.69-7.63Zm-9.98,.04c-3.47,1.66-4.47,5.02-2.41,7.8,3.44-1.57,4.46-4.8,2.41-7.8Z" fill="#fff" />
      <path d="M52.94,62.05c5.27,1.91,7.05,6.96,4.2,11.88-5.23-1.14-7.41-8.15-4.2-11.88Z" fill="#c8b299" stroke="#c8b299" stroke-miterlimit="10" stroke-width=".43" />
      <path d="M44.46,62.11c3.2,4.67,1.61,9.7-3.75,12.15-3.22-4.33-1.65-9.56,3.75-12.15Z" fill="#c8b299" stroke="#c8b299" stroke-miterlimit="10" stroke-width=".43" />
      <g>
        <path d="M73.82,.13c-.22,1.92-.32,3.86-.67,5.76-1.75,9.71-7.42,16.16-16.63,19.37-4.29,1.5-8.77,1.67-13.25,.57-1.2-.29-1.72-.86-1.74-2.14-.14-7.86,4.11-15.23,13.78-16.4,6.82-.82,12.76-3.04,18.06-7.28,.15,.04,.3,.08,.45,.13Z" fill="#006838" />
        <path d="M47.23,36.57c.03,.09,.07,.18,.14,.25,.52,.58,1.23,1.2,1.79,.63,.14-.14,.24-.36,.34-.57,.04-.1,.06-.2,.06-.31-.42-11.13-5.4-19.77-13.49-27.04-.45-.41-1.16-.04-1.11,.57,0,0,0,.01,0,.02,.31,3.33-.9,5.89-4.07,7.65-.49,.27-.46,.97,.05,1.19,8.12,3.52,13.78,9.13,16.28,17.61Z" fill="#006838" />
      </g>
      <path d="M93.85,42.82c-2.95-8.13-8.11-14.1-16.59-16.76-4.01-1.26-8.07-1.64-12.21-.91-6,1.05-11,4.06-15.5,8.01-.5,.44-.99,.87-1.45,1.27-1.72-1.32-3.25-2.61-4.88-3.74-6.07-4.21-12.71-6.45-20.14-5.16C8.85,27.99,3.16,38,.94,48.99c-1.57,7.79-1.09,15.63,.83,23.35,.79,3.17,1.59,6.35,2.64,9.44,2.43,7.14,5.65,13.88,10.86,19.48,2.9,3.12,6.29,5.47,10.55,6.35,4.84,1.01,9.72,1.15,14.61,.62,2.92-.32,5.79-.92,8.33-2.67,2.27,1.54,4.88,2.12,7.56,2.37,1.94,.18,3.9,.26,5.85,.29,.04-.02,.09-.03,.14-.02,.17,.02,.34,.03,.51,.04,.05-.06,.12-.1,.23-.1,.35,.01,.7-.02,1.05-.02,.33,0,.66,.02,1,.02,1.16-.18,2.35-.23,3.52-.35,5.7-.58,10.53-2.85,14.06-7.48,1.65-2.16,3.28-4.37,4.59-6.73,4.69-8.49,7.3-17.67,8.57-27.25,1.06-7.98,.79-15.87-1.99-23.52Zm-3.05,17.53c-.59,10.94-3.31,21.35-8.66,30.96-1.29,2.32-2.98,4.45-4.7,6.48-2.03,2.4-4.74,3.75-7.86,4.24-4.69,.75-9.39,.98-14.08,.15-1.3-.23-2.6-.77-3.77-1.39-1.87-1-3.81-1.38-5.55-.2-2.51,1.7-5.31,2.15-8.15,2.21-3.34,.07-6.7-.14-10.02-.46-3.77-.37-6.64-2.53-9.07-5.29-4.56-5.17-7.35-11.32-9.53-17.77-2.24-6.62-3.63-13.41-3.78-20.16-.02-5.67,.7-10.96,2.88-15.96,4.79-11.01,16.79-15.53,27.55-10.2,2.61,1.29,5.01,3.1,7.29,4.94,3.51,2.82,6.03,2.89,9.36-.13,3.82-3.47,8.03-6.26,13.22-7.14,9.12-1.54,17.45,2.84,21.51,11.26,2.81,5.83,3.7,12.07,3.36,18.45Z" fill="#8f282e" />
    </g>
  </g>
  <text transform="translate(6.01 177.25)" fill="#006838" font-family="Ubuntu-Bold, Ubuntu" font-size="57.7" font-weight="700">
    <tspan x="0" y="0">Quat</tspan>
    <tspan x="137.1" y="0" letter-spacing="-.01em">r</tspan>
    <tspan x="160.88" y="0" letter-spacing="0em">o</tspan>
  </text>
</svg>