<?xml version="1.0" encoding="UTF-8"?>
<svg id="Layer_1" data-name="Layer 1" xmlns="http://www.w3.org/2000/svg" viewBox="0 0 1234.03 707.91">
  <defs>
    <style>
      .cls-1 {
        fill: #ffdbb3;
      }

      .cls-2 {
        fill: #8e272d;
      }

      .cls-3, .cls-4 {
        fill: #557b3f;
      }

      .cls-5 {
        fill: #d9e021;
        stroke: #736357;
        stroke-width: 4.83px;
      }

      .cls-5, .cls-6, .cls-4 {
        stroke-miterlimit: 10;
      }

      .cls-6 {
        fill: #fff;
        stroke: #c7b299;
      }

      .cls-4 {
        stroke: #557b3f;
        stroke-width: 30px;
      }
    </style>
  </defs>
  <path class="cls-4" d="m165.68,341.83s9.53,134.96,183.54,132.8c215.72-2.68,258.9-116.69,258.9-116.69l-35.1-38.02s-27.76,58.74-79.75,56.91c-48.28-1.69-84.92-74.74-94.87-107.58-11.69-38.58-6.67-127.03,5.02-146.32,12.45-20.55,65.72-38.29,119.5-38.29,49.98,0,100.8,10.87,119.44,37.56,16.01,22.94,23.2,96.97,11.6,143.66-7.49,30.15-28.95,73.24-28.95,73.24l48.6,36.24-15.78,28.64-42.67-40.92s-61.41,113.43-268.88,115.69c-166.58,1.81-180.59-121.1-180.59-136.92Zm450.85-5.81s25.82-41.92,31.61-88.74c4.98-40.28,5.81-80.52-19.31-108.47-25.32-28.17-54.47-35.22-105.91-34.63-52.61.6-85.98,7.62-103.34,32.94-20.33,29.65-22.87,76.75-10.01,127.91,11.33,45.09,44.87,99.32,85.4,98.77,59.04-.81,80.44-63.85,80.44-63.85l41.14,36.08Z"/>
  <g>
    <path class="cls-5" d="m796.67,339.27c-5.4,1.49-12.36,2.87-20.88,4.16-8.52,1.28-17.47,1.93-26.85,1.93s-17.44-1.22-23.76-3.65c-6.32-2.43-11.33-5.84-15.02-10.24-3.7-4.39-6.32-9.63-7.89-15.71-1.56-6.08-2.34-12.77-2.34-20.07v-59.41h31.75v55.76c0,9.73,1.35,16.76,4.05,21.09,2.7,4.33,7.74,6.49,15.13,6.49,2.27,0,4.69-.1,7.25-.3,2.56-.2,4.83-.44,6.82-.71v-82.32h31.75v103Z"/>
    <path class="cls-5" d="m866.78,233.43c9.38,0,17.19,1.01,23.44,3.04,6.25,2.03,11.26,4.94,15.02,8.72,3.76,3.79,6.43,8.38,7.99,13.79,1.56,5.41,2.34,11.42,2.34,18.04v62.85c-4.55.95-10.87,2.06-18.97,3.35-8.1,1.28-17.9,1.93-29.41,1.93-7.25,0-13.82-.61-19.71-1.82-5.9-1.22-10.97-3.21-15.24-5.98-4.26-2.77-7.53-6.39-9.8-10.85-2.27-4.46-3.41-9.93-3.41-16.42s1.31-11.49,3.94-15.81c2.63-4.32,6.14-7.77,10.55-10.34,4.4-2.57,9.45-4.43,15.13-5.57,5.68-1.15,11.58-1.72,17.69-1.72,4.12,0,7.78.17,10.98.51,3.2.34,5.79.78,7.78,1.32v-2.84c0-5.14-1.64-9.26-4.9-12.37-3.27-3.11-8.95-4.66-17.05-4.66-5.4,0-10.73.37-15.98,1.11-5.26.75-9.8,1.79-13.64,3.14l-4.05-24.33c1.84-.54,4.16-1.12,6.93-1.72,2.77-.61,5.79-1.15,9.06-1.62,3.27-.47,6.71-.88,10.34-1.22,3.62-.34,7.28-.51,10.97-.51Zm2.56,88.4c3.12,0,6.11-.07,8.95-.2,2.84-.13,5.11-.34,6.82-.61v-22.91c-1.28-.27-3.2-.54-5.75-.81-2.56-.27-4.9-.41-7.03-.41-2.98,0-5.79.17-8.42.51-2.63.34-4.94.98-6.93,1.93-1.99.95-3.55,2.23-4.69,3.85-1.14,1.62-1.7,3.65-1.7,6.08,0,4.73,1.67,8.01,5.01,9.83,3.34,1.83,7.92,2.74,13.75,2.74Z"/>
    <path class="cls-5" d="m943.28,209.71l31.75-4.87v31.43h38.15v25.14h-38.15v37.51c0,6.36,1.17,11.42,3.52,15.21,2.34,3.79,7.07,5.68,14.17,5.68,3.41,0,6.93-.3,10.55-.91,3.62-.61,6.93-1.45,9.91-2.53l4.48,23.52c-3.84,1.49-8.1,2.77-12.79,3.85s-10.44,1.62-17.26,1.62c-8.67,0-15.84-1.12-21.52-3.35-5.68-2.23-10.23-5.34-13.64-9.33-3.41-3.99-5.79-8.82-7.14-14.5-1.35-5.68-2.02-11.96-2.02-18.86v-89.61Z"/>
    <path class="cls-5" d="m1106.52,263.03c-2.84-.68-6.18-1.39-10.02-2.13-3.84-.74-7.96-1.11-12.36-1.11-1.99,0-4.37.17-7.14.51-2.77.34-4.87.71-6.29,1.12v81.51h-31.75v-100.97c5.68-1.89,12.39-3.68,20.14-5.37,7.74-1.69,16.37-2.53,25.89-2.53,1.7,0,3.76.1,6.18.3,2.41.2,4.83.47,7.25.81,2.41.34,4.83.75,7.25,1.22,2.41.48,4.48,1.05,6.18,1.72l-5.33,24.94Z"/>
    <path class="cls-5" d="m1231.61,289.39c0,8.38-1.28,16.05-3.84,23.01-2.56,6.96-6.25,12.91-11.08,17.84-4.83,4.94-10.62,8.75-17.37,11.45-6.75,2.7-14.32,4.06-22.7,4.06s-15.74-1.35-22.48-4.06c-6.75-2.7-12.54-6.52-17.37-11.45-4.83-4.93-8.6-10.88-11.29-17.84-2.7-6.96-4.05-14.63-4.05-23.01s1.39-16.02,4.16-22.91c2.77-6.89,6.61-12.77,11.51-17.64,4.9-4.87,10.73-8.65,17.47-11.35,6.75-2.7,14.1-4.06,22.06-4.06s15.52,1.35,22.27,4.06c6.75,2.71,12.54,6.49,17.37,11.35,4.83,4.87,8.59,10.75,11.29,17.64,2.7,6.89,4.05,14.53,4.05,22.91Zm-32.39,0c0-9.33-1.95-16.66-5.86-22-3.91-5.34-9.48-8.01-16.73-8.01s-12.86,2.67-16.83,8.01c-3.98,5.34-5.97,12.67-5.97,22s1.99,16.73,5.97,22.2c3.98,5.47,9.59,8.21,16.83,8.21s12.82-2.74,16.73-8.21c3.91-5.47,5.86-12.87,5.86-22.2Z"/>
  </g>
  <g>
    <path class="cls-2" d="m337.05,153.38c-10.6-29.11-29.13-50.48-59.58-60.02-14.39-4.51-28.97-5.88-43.87-3.27-21.54,3.77-39.49,14.53-55.68,28.68-1.79,1.56-3.57,3.12-5.22,4.56-6.17-4.75-11.66-9.35-17.52-13.41-21.8-15.09-45.63-23.09-72.34-18.48C31.8,100.26,11.34,136.1,3.38,175.45c-5.65,27.9-3.91,55.98,2.97,83.61,2.83,11.35,5.71,22.74,9.48,33.8,8.73,25.59,20.3,49.73,39,69.78,10.42,11.18,22.59,19.59,37.87,22.76,17.37,3.61,34.9,4.12,52.47,2.23,10.49-1.13,20.8-3.3,29.93-9.55,8.17,5.53,17.53,7.61,27.15,8.5,6.97.65,13.99.92,21,1.02.14-.06.31-.09.51-.07.61.06,1.22.11,1.82.15.17-.22.45-.37.82-.36,1.26.04,2.52-.08,3.78-.06,1.19.02,2.39.07,3.58.08,4.17-.65,8.42-.82,12.64-1.25,20.46-2.08,37.83-10.22,50.51-26.78,5.92-7.73,11.8-15.63,16.5-24.12,16.85-30.4,26.22-63.27,30.79-97.59,3.81-28.59,2.83-56.84-7.15-84.23Zm-10.94,62.78c-2.13,39.2-11.89,76.48-31.1,110.89-4.63,8.3-10.7,15.93-16.87,23.22-7.28,8.6-17.02,13.42-28.21,15.2-16.83,2.67-33.71,3.51-50.55.53-4.68-.83-9.33-2.74-13.55-4.99-6.7-3.57-13.67-4.95-19.93-.71-9.01,6.1-19.06,7.72-29.25,7.92-11.99.24-24.05-.49-36-1.66-13.54-1.33-23.84-9.06-32.58-18.94-16.39-18.51-26.38-40.53-34.21-63.63-8.03-23.71-13.04-48.02-13.59-72.21-.06-20.33,2.5-39.24,10.33-57.17,17.22-39.45,60.32-55.63,98.94-36.53,9.37,4.63,17.98,11.11,26.18,17.7,12.59,10.12,21.66,10.36,33.62-.46,13.73-12.42,28.85-22.43,47.49-25.57,32.74-5.51,62.67,10.16,77.24,40.32,10.09,20.89,13.3,43.23,12.05,66.08Z"/>
    <path class="cls-1" d="m20.26,211.79c-.06-20.33,2.5-39.24,10.33-57.17,17.22-39.45,60.32-55.63,98.94-36.53,9.37,4.63,17.98,11.11,26.18,17.7,12.59,10.12,21.66,10.36,33.62-.46,13.73-12.42,28.85-22.43,47.49-25.57,32.74-5.51,62.67,10.16,77.24,40.32,10.09,20.89,13.3,43.23,12.05,66.08-2.13,39.2-11.89,76.48-31.1,110.89-4.63,8.3-10.7,15.93-16.87,23.22-7.28,8.6-17.02,13.42-28.21,15.2-16.83,2.67-33.71,3.51-50.55.53-4.68-.83-9.33-2.74-13.55-4.99-6.7-3.57-13.67-4.95-19.93-.71-9.01,6.1-19.06,7.72-29.25,7.92-11.99.24-24.05-.49-36-1.66-13.54-1.33-23.84-9.06-32.58-18.94-16.39-18.51-26.38-40.53-34.21-63.63-8.03-23.71-13.04-48.02-13.59-72.21Zm172.63,18.2c-7.4,8.58-2.38,24.69,9.68,27.31,6.58-11.32,2.47-22.92-9.68-27.31Zm-35.84.15c-12.45,5.95-16.07,17.98-8.64,27.92,12.35-5.63,16.02-17.18,8.64-27.92Z"/>
    <path class="cls-6" d="m192.89,229.98c12.15,4.39,16.26,15.99,9.68,27.31-12.06-2.62-17.07-18.74-9.68-27.31Z"/>
    <path class="cls-6" d="m157.05,230.13c7.38,10.75,3.71,22.29-8.64,27.92-7.42-9.95-3.8-21.97,8.64-27.92Z"/>
    <g>
      <path class="cls-3" d="m265.11.45c-.77,6.88-1.16,13.83-2.39,20.63-6.27,34.79-26.65,57.87-59.72,69.37-15.41,5.36-31.5,5.97-47.6,2.03-4.3-1.05-6.17-3.08-6.25-7.66-.5-28.15,14.76-54.54,49.5-58.72,24.49-2.95,45.82-10.88,64.84-26.09.54.15,1.08.3,1.63.45Z"/>
      <path class="cls-3" d="m169.62,130.97c.1.33.26.64.5.9,1.87,2.07,4.41,4.28,6.43,2.27.51-.51.88-1.28,1.23-2.04.16-.34.23-.72.22-1.1-1.5-39.86-19.39-70.81-48.45-96.85-1.63-1.46-4.18-.14-3.97,2.05,0,.02,0,.04,0,.06,1.11,11.91-3.23,21.11-14.61,27.38-1.74.96-1.64,3.49.18,4.28,29.16,12.61,49.5,32.7,58.47,63.06Z"/>
    </g>
  </g>
</svg>